<?xml version="1.0" standalone="no"?>
<!DOCTYPE svg PUBLIC "-//W3C//DTD SVG 20010904//EN"
 "http://www.w3.org/TR/2001/REC-SVG-20010904/DTD/svg10.dtd">
<svg version="1.0" xmlns="http://www.w3.org/2000/svg"
 width="1280.000000pt" height="1210.000000pt" viewBox="0 0 1280.000000 1210.000000"
 preserveAspectRatio="xMidYMid meet">
<metadata>
Created by potrace 1.15, written by Peter Selinger 2001-2017
</metadata>
<g transform="translate(0.000000,1210.000000) scale(0.100000,-0.100000)"
fill="#000000" stroke="none">
<path d="M6391 11036 c-41 -49 203 -287 874 -851 899 -756 1266 -1079 1619
-1425 435 -427 687 -756 721 -941 l7 -36 -84 -7 c-137 -11 -413 14 -668 60
-566 101 -1082 224 -1773 420 -217 62 -372 114 -570 191 -1188 461 -2149 713
-2721 713 -193 0 -443 -52 -583 -121 -93 -46 -203 -141 -251 -216 -72 -114
-88 -292 -38 -438 101 -299 344 -635 776 -1079 693 -710 1950 -1696 2498
-1959 103 -50 175 -57 180 -19 11 73 -199 318 -899 1052 -1005 1054 -1429
1568 -1608 1951 -37 78 -73 189 -66 197 6 7 188 -20 310 -44 477 -96 1076
-290 1945 -629 285 -111 345 -131 740 -241 870 -244 1670 -411 2230 -466 199
-19 602 -16 740 6 237 37 377 86 520 181 89 59 162 141 207 233 30 60 37 86
41 152 2 44 -1 108 -7 141 -16 79 -7 89 10 12 7 -32 15 -49 16 -38 3 13 23 29
56 45 59 28 68 34 105 74 15 16 32 34 37 40 50 54 81 147 71 213 -4 21 -8 47
-10 58 -7 46 -72 153 -122 201 -54 52 -109 85 -128 78 -15 -6 -36 -53 -36 -80
0 -61 -62 -236 -96 -271 -9 -9 -14 -9 -23 0 -7 7 8 -26 33 -73 25 -47 46 -89
46 -95 0 -5 -24 33 -53 85 -104 188 -210 324 -421 538 -532 541 -1491 1257
-2466 1842 -423 254 -838 470 -1016 530 -103 34 -126 36 -143 16z m-2601
-2491 c0 -9 -6 -12 -16 -8 -13 5 -13 7 -2 14 17 11 18 11 18 -6z m6720 -570
c0 -5 -5 -3 -10 5 -5 8 -10 20 -10 25 0 6 5 3 10 -5 5 -8 10 -19 10 -25z"/>
<path d="M3910 8501 c31 -9 17 -18 -33 -22 -25 -3 -41 1 -47 11 -5 8 -10 12
-10 9 0 -17 45 -141 68 -182 22 -41 27 -45 41 -33 9 7 22 11 29 9 6 -3 12 0
12 5 0 6 15 14 33 17 17 4 38 12 45 18 7 5 15 7 18 4 4 -3 23 0 43 8 62 23
206 40 320 37 30 -1 52 0 50 2 -5 5 -277 72 -349 86 -153 30 -280 48 -220 31z"/>
<path d="M6530 8458 c3 -4 57 -27 120 -52 170 -69 878 -268 1370 -385 317 -76
748 -163 817 -165 24 0 43 -5 43 -10 0 -4 15 -6 34 -4 19 2 32 0 30 -4 -3 -5
7 -8 23 -8 15 1 54 -4 87 -11 45 -9 60 -9 66 1 5 8 11 7 23 -4 17 -17 92 -23
82 -6 -3 6 0 10 8 10 8 0 17 -6 20 -14 5 -12 38 -15 177 -15 l172 -1 -6 26
c-13 51 -49 139 -53 127 -4 -11 -101 -10 -163 2 -14 3 -56 10 -95 15 -38 6
-86 12 -105 15 -19 3 -69 10 -110 15 -41 6 -97 15 -125 20 -71 13 -115 20
-151 24 -17 1 -35 5 -40 8 -5 3 -31 9 -59 12 -27 3 -61 8 -75 11 -96 20 -138
28 -161 30 -15 2 -36 6 -47 9 -11 4 -46 12 -79 17 -97 18 -145 27 -203 40 -30
6 -64 12 -76 13 -11 1 -26 6 -32 10 -7 4 -31 9 -55 12 -23 2 -62 9 -87 15
-183 45 -294 69 -318 69 -13 0 -31 4 -40 9 -9 5 -35 11 -57 15 -22 3 -62 10
-90 16 -27 5 -75 14 -105 19 -30 5 -93 17 -140 25 -47 9 -102 16 -122 16 -20
0 -39 4 -42 8 -3 5 -29 9 -57 11 -29 1 -56 4 -61 7 -4 3 -38 7 -75 10 -69 5
-192 27 -228 40 -11 4 -18 5 -15 2z m2573 -635 c-7 -2 -19 -2 -25 0 -7 3 -2 5
12 5 14 0 19 -2 13 -5z m197 -19 c0 -2 -9 -4 -21 -4 -11 0 -18 4 -14 10 5 8
35 3 35 -6z"/>
<path d="M10629 5555 c-53 -7 -134 -20 -181 -29 -69 -13 -103 -14 -193 -5
-323 31 -1228 -74 -2510 -290 -288 -49 -423 -68 -835 -115 -418 -49 -887 -90
-1325 -118 -117 -7 -419 -12 -730 -13 -542 0 -816 12 -1129 51 -132 16 -360
60 -384 73 -29 16 149 65 533 146 324 69 407 97 413 142 6 38 -76 73 -253 107
-157 30 -283 40 -515 39 -304 -1 -461 -24 -640 -93 -41 -16 -120 -41 -175 -55
-341 -91 -595 -244 -675 -409 l-21 -45 -97 -21 c-164 -35 -428 -126 -567 -194
-311 -153 -547 -362 -658 -581 -13 -27 -37 -88 -52 -135 -23 -72 -28 -104 -29
-205 -1 -100 3 -132 23 -195 49 -156 156 -297 324 -422 102 -77 320 -165 497
-202 196 -40 480 -45 670 -11 47 8 88 15 91 15 3 0 13 -17 23 -37 92 -195 349
-487 587 -665 592 -445 1665 -774 2664 -819 252 -12 776 -6 1082 11 1482 84
2596 422 3354 1021 136 107 396 369 487 490 196 263 325 547 387 852 48 236
50 553 4 714 -102 366 -215 537 -297 450 -49 -52 -97 -206 -126 -407 -51 -339
-231 -779 -439 -1070 -227 -318 -524 -576 -915 -794 -525 -293 -1258 -486
-2167 -570 -321 -30 -569 -40 -1025 -40 -454 -1 -470 0 -670 27 -676 91 -1101
202 -1475 387 -631 311 -996 775 -1115 1420 -24 132 -44 290 -37 297 3 3 79
-16 169 -41 1035 -293 2296 -339 3738 -135 1134 160 2464 503 3480 896 511
198 982 443 1032 536 9 17 7 24 -12 39 -18 15 -39 18 -119 17 -53 -1 -139 -7
-192 -14z m-7314 -435 c3 -5 1 -10 -4 -10 -6 0 -11 5 -11 10 0 6 2 10 4 10 3
0 8 -4 11 -10z m-1140 -783 c-47 -89 -86 -210 -112 -352 -22 -117 -23 -426 -1
-537 8 -43 11 -78 7 -78 -4 0 -54 16 -111 36 -135 47 -270 117 -307 160 -44
49 -64 129 -59 230 4 70 10 94 41 158 73 146 172 250 411 428 l119 89 27 -26
28 -27 -43 -81z"/>
<path d="M11703 4399 c-34 -34 6 -184 103 -388 139 -291 242 -638 275 -921 17
-147 6 -416 -21 -545 -90 -422 -364 -774 -820 -1050 -212 -129 -529 -271 -821
-368 -701 -234 -1557 -383 -2569 -449 -252 -16 -1181 -16 -1430 0 -1099 72
-1978 209 -3075 477 -751 183 -1331 360 -2615 798 -494 168 -604 200 -677 195
-71 -5 -69 -25 14 -106 291 -283 1212 -758 2151 -1108 2170 -810 4468 -1102
6576 -838 1766 221 3045 740 3629 1472 125 156 244 372 301 545 90 273 97 605
21 908 -102 403 -342 821 -631 1098 -239 230 -372 320 -411 280z"/>
</g>
</svg>
